solid Default
  facet normal -1.000000e+00 0.000000e+00 0.000000e+00
    outer loop
      vertex -3.775000e+01 4.750000e+00 2.500000e+00
      vertex -3.775000e+01 4.750000e+00 0.000000e+00
      vertex -3.775000e+01 -1.275000e+01 0.000000e+00
    endloop
  endfacet
  facet normal -1.000000e+00 0.000000e+00 0.000000e+00
    outer loop
      vertex -3.775000e+01 4.750000e+00 2.500000e+00
      vertex -3.775000e+01 -1.275000e+01 0.000000e+00
      vertex -3.775000e+01 -1.275000e+01 2.500000e+00
    endloop
  endfacet
  facet normal -1.000000e+00 0.000000e+00 0.000000e+00
    outer loop
      vertex -3.775000e+01 3.725000e+01 2.500000e+00
      vertex -3.775000e+01 3.725000e+01 0.000000e+00
      vertex -3.775000e+01 1.975000e+01 0.000000e+00
    endloop
  endfacet
  facet normal -1.000000e+00 0.000000e+00 0.000000e+00
    outer loop
      vertex -3.775000e+01 3.725000e+01 2.500000e+00
      vertex -3.775000e+01 1.975000e+01 0.000000e+00
      vertex -3.775000e+01 1.975000e+01 2.500000e+00
    endloop
  endfacet
  facet normal 1.000000e+00 0.000000e+00 0.000000e+00
    outer loop
      vertex 1.225000e+01 1.257214e+00 0.000000e+00
      vertex 1.225000e+01 1.257214e+00 2.500000e+00
      vertex 1.225000e+01 -1.275000e+01 2.500000e+00
    endloop
  endfacet
  facet normal 1.000000e+00 0.000000e+00 0.000000e+00
    outer loop
      vertex 1.225000e+01 1.257214e+00 0.000000e+00
      vertex 1.225000e+01 -1.275000e+01 2.500000e+00
      vertex 1.225000e+01 -1.275000e+01 0.000000e+00
    endloop
  endfacet
  facet normal 1.000000e+00 0.000000e+00 0.000000e+00
    outer loop
      vertex 1.225000e+01 3.725000e+01 0.000000e+00
      vertex 1.225000e+01 3.725000e+01 2.500000e+00
      vertex 1.225000e+01 2.074279e+01 2.500000e+00
    endloop
  endfacet
  facet normal 1.000000e+00 0.000000e+00 0.000000e+00
    outer loop
      vertex 1.225000e+01 3.725000e+01 0.000000e+00
      vertex 1.225000e+01 2.074279e+01 2.500000e+00
      vertex 1.225000e+01 2.074279e+01 0.000000e+00
    endloop
  endfacet
  facet normal 0.000000e+00 -1.000000e+00 0.000000e+00
    outer loop
      vertex -1.900000e+01 -1.275000e+01 0.000000e+00
      vertex -1.900000e+01 -1.275000e+01 2.500000e+00
      vertex -3.775000e+01 -1.275000e+01 2.500000e+00
    endloop
  endfacet
  facet normal 0.000000e+00 -1.000000e+00 0.000000e+00
    outer loop
      vertex -1.900000e+01 -1.275000e+01 0.000000e+00
      vertex -3.775000e+01 -1.275000e+01 2.500000e+00
      vertex -3.775000e+01 -1.275000e+01 0.000000e+00
    endloop
  endfacet
  facet normal 0.000000e+00 -1.000000e+00 0.000000e+00
    outer loop
      vertex 1.225000e+01 -1.275000e+01 0.000000e+00
      vertex 1.225000e+01 -1.275000e+01 2.500000e+00
      vertex -4.000000e+00 -1.275000e+01 2.500000e+00
    endloop
  endfacet
  facet normal 0.000000e+00 -1.000000e+00 0.000000e+00
    outer loop
      vertex 1.225000e+01 -1.275000e+01 0.000000e+00
      vertex -4.000000e+00 -1.275000e+01 2.500000e+00
      vertex -4.000000e+00 -1.275000e+01 0.000000e+00
    endloop
  endfacet
  facet normal 0.000000e+00 1.000000e+00 0.000000e+00
    outer loop
      vertex -3.775000e+01 3.725000e+01 0.000000e+00
      vertex -3.775000e+01 3.725000e+01 2.500000e+00
      vertex 1.225000e+01 3.725000e+01 2.500000e+00
    endloop
  endfacet
  facet normal 0.000000e+00 1.000000e+00 0.000000e+00
    outer loop
      vertex -3.775000e+01 3.725000e+01 0.000000e+00
      vertex 1.225000e+01 3.725000e+01 2.500000e+00
      vertex 1.225000e+01 3.725000e+01 0.000000e+00
    endloop
  endfacet
  facet normal 0.000000e+00 0.000000e+00 -1.000000e+00
    outer loop
      vertex 1.225000e+01 3.725000e+01 0.000000e+00
      vertex 1.225000e+01 2.074279e+01 0.000000e+00
      vertex -3.775000e+01 2.074279e+01 0.000000e+00
    endloop
  endfacet
  facet normal 0.000000e+00 0.000000e+00 -1.000000e+00
    outer loop
      vertex 1.225000e+01 3.725000e+01 0.000000e+00
      vertex -3.775000e+01 2.074279e+01 0.000000e+00
      vertex -3.775000e+01 3.725000e+01 0.000000e+00
    endloop
  endfacet
  facet normal 0.000000e+00 0.000000e+00 -1.000000e+00
    outer loop
      vertex 5.375000e+00 2.074279e+01 0.000000e+00
      vertex 4.801814e+00 1.975000e+01 0.000000e+00
      vertex -3.775000e+01 1.975000e+01 0.000000e+00
    endloop
  endfacet
  facet normal 0.000000e+00 0.000000e+00 -1.000000e+00
    outer loop
      vertex 5.375000e+00 2.074279e+01 0.000000e+00
      vertex -3.775000e+01 1.975000e+01 0.000000e+00
      vertex -3.775000e+01 2.074279e+01 0.000000e+00
    endloop
  endfacet
  facet normal 0.000000e+00 0.000000e+00 -1.000000e+00
    outer loop
      vertex 4.801814e+00 1.975000e+01 0.000000e+00
      vertex -2.500000e-01 1.100000e+01 0.000000e+00
      vertex -4.525000e+01 1.100000e+01 0.000000e+00
    endloop
  endfacet
  facet normal 0.000000e+00 0.000000e+00 -1.000000e+00
    outer loop
      vertex 4.801814e+00 1.975000e+01 0.000000e+00
      vertex -4.525000e+01 1.100000e+01 0.000000e+00
      vertex -4.525000e+01 1.975000e+01 0.000000e+00
    endloop
  endfacet
  facet normal 0.000000e+00 0.000000e+00 -1.000000e+00
    outer loop
      vertex -2.500000e-01 1.100000e+01 0.000000e+00
      vertex 3.358439e+00 4.750000e+00 0.000000e+00
      vertex -4.525000e+01 4.750000e+00 0.000000e+00
    endloop
  endfacet
  facet normal 0.000000e+00 0.000000e+00 -1.000000e+00
    outer loop
      vertex -2.500000e-01 1.100000e+01 0.000000e+00
      vertex -4.525000e+01 4.750000e+00 0.000000e+00
      vertex -4.525000e+01 1.100000e+01 0.000000e+00
    endloop
  endfacet
  facet normal 0.000000e+00 0.000000e+00 -1.000000e+00
    outer loop
      vertex 3.358439e+00 4.750000e+00 0.000000e+00
      vertex 5.375000e+00 1.257214e+00 0.000000e+00
      vertex -3.775000e+01 1.257214e+00 0.000000e+00
    endloop
  endfacet
  facet normal 0.000000e+00 0.000000e+00 -1.000000e+00
    outer loop
      vertex 3.358439e+00 4.750000e+00 0.000000e+00
      vertex -3.775000e+01 1.257214e+00 0.000000e+00
      vertex -3.775000e+01 4.750000e+00 0.000000e+00
    endloop
  endfacet
  facet normal 0.000000e+00 0.000000e+00 -1.000000e+00
    outer loop
      vertex 1.225000e+01 1.257214e+00 0.000000e+00
      vertex 1.225000e+01 -1.275000e+01 0.000000e+00
      vertex -3.775000e+01 -1.275000e+01 0.000000e+00
    endloop
  endfacet
  facet normal 0.000000e+00 0.000000e+00 -1.000000e+00
    outer loop
      vertex 1.225000e+01 1.257214e+00 0.000000e+00
      vertex -3.775000e+01 -1.275000e+01 0.000000e+00
      vertex -3.775000e+01 1.257214e+00 0.000000e+00
    endloop
  endfacet
  facet normal 0.000000e+00 0.000000e+00 -1.000000e+00
    outer loop
      vertex -4.000000e+00 -1.275000e+01 0.000000e+00
      vertex -2.500000e-01 -2.025000e+01 0.000000e+00
      vertex -2.275000e+01 -2.025000e+01 0.000000e+00
    endloop
  endfacet
  facet normal 0.000000e+00 0.000000e+00 -1.000000e+00
    outer loop
      vertex -4.000000e+00 -1.275000e+01 0.000000e+00
      vertex -2.275000e+01 -2.025000e+01 0.000000e+00
      vertex -1.900000e+01 -1.275000e+01 0.000000e+00
    endloop
  endfacet
  facet normal 0.000000e+00 0.000000e+00 1.000000e+00
    outer loop
      vertex -2.500000e-01 -2.025000e+01 2.500000e+00
      vertex -4.000000e+00 -1.275000e+01 2.500000e+00
      vertex -1.900000e+01 -1.275000e+01 2.500000e+00
    endloop
  endfacet
  facet normal 0.000000e+00 0.000000e+00 1.000000e+00
    outer loop
      vertex -2.500000e-01 -2.025000e+01 2.500000e+00
      vertex -1.900000e+01 -1.275000e+01 2.500000e+00
      vertex -2.275000e+01 -2.025000e+01 2.500000e+00
    endloop
  endfacet
  facet normal 0.000000e+00 0.000000e+00 1.000000e+00
    outer loop
      vertex 1.225000e+01 -1.275000e+01 2.500000e+00
      vertex 1.225000e+01 1.257214e+00 2.500000e+00
      vertex -3.775000e+01 1.257214e+00 2.500000e+00
    endloop
  endfacet
  facet normal 0.000000e+00 0.000000e+00 1.000000e+00
    outer loop
      vertex 1.225000e+01 -1.275000e+01 2.500000e+00
      vertex -3.775000e+01 1.257214e+00 2.500000e+00
      vertex -3.775000e+01 -1.275000e+01 2.500000e+00
    endloop
  endfacet
  facet normal 0.000000e+00 0.000000e+00 1.000000e+00
    outer loop
      vertex 5.375000e+00 1.257214e+00 2.500000e+00
      vertex 3.358439e+00 4.750000e+00 2.500000e+00
      vertex -3.775000e+01 4.750000e+00 2.500000e+00
    endloop
  endfacet
  facet normal 0.000000e+00 0.000000e+00 1.000000e+00
    outer loop
      vertex 5.375000e+00 1.257214e+00 2.500000e+00
      vertex -3.775000e+01 4.750000e+00 2.500000e+00
      vertex -3.775000e+01 1.257214e+00 2.500000e+00
    endloop
  endfacet
  facet normal 0.000000e+00 0.000000e+00 1.000000e+00
    outer loop
      vertex 3.358439e+00 4.750000e+00 2.500000e+00
      vertex -2.500000e-01 1.100000e+01 2.500000e+00
      vertex -4.525000e+01 1.100000e+01 2.500000e+00
    endloop
  endfacet
  facet normal 0.000000e+00 0.000000e+00 1.000000e+00
    outer loop
      vertex 3.358439e+00 4.750000e+00 2.500000e+00
      vertex -4.525000e+01 1.100000e+01 2.500000e+00
      vertex -4.525000e+01 4.750000e+00 2.500000e+00
    endloop
  endfacet
  facet normal 0.000000e+00 0.000000e+00 1.000000e+00
    outer loop
      vertex -2.500000e-01 1.100000e+01 2.500000e+00
      vertex 4.801814e+00 1.975000e+01 2.500000e+00
      vertex -4.525000e+01 1.975000e+01 2.500000e+00
    endloop
  endfacet
  facet normal 0.000000e+00 0.000000e+00 1.000000e+00
    outer loop
      vertex -2.500000e-01 1.100000e+01 2.500000e+00
      vertex -4.525000e+01 1.975000e+01 2.500000e+00
      vertex -4.525000e+01 1.100000e+01 2.500000e+00
    endloop
  endfacet
  facet normal 0.000000e+00 0.000000e+00 1.000000e+00
    outer loop
      vertex 4.801814e+00 1.975000e+01 2.500000e+00
      vertex 5.375000e+00 2.074279e+01 2.500000e+00
      vertex -3.775000e+01 2.074279e+01 2.500000e+00
    endloop
  endfacet
  facet normal 0.000000e+00 0.000000e+00 1.000000e+00
    outer loop
      vertex 4.801814e+00 1.975000e+01 2.500000e+00
      vertex -3.775000e+01 2.074279e+01 2.500000e+00
      vertex -3.775000e+01 1.975000e+01 2.500000e+00
    endloop
  endfacet
  facet normal 0.000000e+00 0.000000e+00 1.000000e+00
    outer loop
      vertex 1.225000e+01 2.074279e+01 2.500000e+00
      vertex 1.225000e+01 3.725000e+01 2.500000e+00
      vertex -3.775000e+01 3.725000e+01 2.500000e+00
    endloop
  endfacet
  facet normal 0.000000e+00 0.000000e+00 1.000000e+00
    outer loop
      vertex 1.225000e+01 2.074279e+01 2.500000e+00
      vertex -3.775000e+01 3.725000e+01 2.500000e+00
      vertex -3.775000e+01 2.074279e+01 2.500000e+00
    endloop
  endfacet
  facet normal -8.944272e-01 4.472136e-01 0.000000e+00
    outer loop
      vertex -2.275000e+01 -2.025000e+01 2.500000e+00
      vertex -1.900000e+01 -1.275000e+01 2.500000e+00
      vertex -1.900000e+01 -1.275000e+01 0.000000e+00
    endloop
  endfacet
  facet normal -8.944272e-01 4.472136e-01 0.000000e+00
    outer loop
      vertex -2.275000e+01 -2.025000e+01 2.500000e+00
      vertex -1.900000e+01 -1.275000e+01 0.000000e+00
      vertex -2.275000e+01 -2.025000e+01 0.000000e+00
    endloop
  endfacet
  facet normal 0.000000e+00 -1.000000e+00 0.000000e+00
    outer loop
      vertex -2.500000e-01 -2.025000e+01 0.000000e+00
      vertex -2.500000e-01 -2.025000e+01 2.500000e+00
      vertex -2.275000e+01 -2.025000e+01 2.500000e+00
    endloop
  endfacet
  facet normal 0.000000e+00 -1.000000e+00 0.000000e+00
    outer loop
      vertex -2.500000e-01 -2.025000e+01 0.000000e+00
      vertex -2.275000e+01 -2.025000e+01 2.500000e+00
      vertex -2.275000e+01 -2.025000e+01 0.000000e+00
    endloop
  endfacet
  facet normal 8.944272e-01 4.472136e-01 0.000000e+00
    outer loop
      vertex -4.000000e+00 -1.275000e+01 2.500000e+00
      vertex -2.500000e-01 -2.025000e+01 2.500000e+00
      vertex -2.500000e-01 -2.025000e+01 0.000000e+00
    endloop
  endfacet
  facet normal 8.944272e-01 4.472136e-01 0.000000e+00
    outer loop
      vertex -4.000000e+00 -1.275000e+01 2.500000e+00
      vertex -2.500000e-01 -2.025000e+01 0.000000e+00
      vertex -4.000000e+00 -1.275000e+01 0.000000e+00
    endloop
  endfacet
  facet normal -1.000000e+00 0.000000e+00 0.000000e+00
    outer loop
      vertex -4.525000e+01 1.975000e+01 2.500000e+00
      vertex -4.525000e+01 1.975000e+01 0.000000e+00
      vertex -4.525000e+01 4.750000e+00 0.000000e+00
    endloop
  endfacet
  facet normal -1.000000e+00 0.000000e+00 0.000000e+00
    outer loop
      vertex -4.525000e+01 1.975000e+01 2.500000e+00
      vertex -4.525000e+01 4.750000e+00 0.000000e+00
      vertex -4.525000e+01 4.750000e+00 2.500000e+00
    endloop
  endfacet
  facet normal 0.000000e+00 -1.000000e+00 0.000000e+00
    outer loop
      vertex -3.775000e+01 4.750000e+00 0.000000e+00
      vertex -3.775000e+01 4.750000e+00 2.500000e+00
      vertex -4.525000e+01 4.750000e+00 2.500000e+00
    endloop
  endfacet
  facet normal 0.000000e+00 -1.000000e+00 0.000000e+00
    outer loop
      vertex -3.775000e+01 4.750000e+00 0.000000e+00
      vertex -4.525000e+01 4.750000e+00 2.500000e+00
      vertex -4.525000e+01 4.750000e+00 0.000000e+00
    endloop
  endfacet
  facet normal 0.000000e+00 1.000000e+00 0.000000e+00
    outer loop
      vertex -3.775000e+01 1.975000e+01 2.500000e+00
      vertex -3.775000e+01 1.975000e+01 0.000000e+00
      vertex -4.525000e+01 1.975000e+01 0.000000e+00
    endloop
  endfacet
  facet normal 0.000000e+00 1.000000e+00 0.000000e+00
    outer loop
      vertex -3.775000e+01 1.975000e+01 2.500000e+00
      vertex -4.525000e+01 1.975000e+01 0.000000e+00
      vertex -4.525000e+01 1.975000e+01 2.500000e+00
    endloop
  endfacet
  facet normal 0.000000e+00 -1.000000e+00 0.000000e+00
    outer loop
      vertex 5.375000e+00 2.074279e+01 2.500000e+00
      vertex 5.375000e+00 2.074279e+01 0.000000e+00
      vertex 1.225000e+01 2.074279e+01 0.000000e+00
    endloop
  endfacet
  facet normal 0.000000e+00 -1.000000e+00 0.000000e+00
    outer loop
      vertex 5.375000e+00 2.074279e+01 2.500000e+00
      vertex 1.225000e+01 2.074279e+01 0.000000e+00
      vertex 1.225000e+01 2.074279e+01 2.500000e+00
    endloop
  endfacet
  facet normal 8.660254e-01 -5.000000e-01 0.000000e+00
    outer loop
      vertex -2.500000e-01 1.100000e+01 0.000000e+00
      vertex 5.375000e+00 2.074279e+01 0.000000e+00
      vertex 5.375000e+00 2.074279e+01 2.500000e+00
    endloop
  endfacet
  facet normal 8.660254e-01 -5.000000e-01 0.000000e+00
    outer loop
      vertex -2.500000e-01 1.100000e+01 0.000000e+00
      vertex 5.375000e+00 2.074279e+01 2.500000e+00
      vertex -2.500000e-01 1.100000e+01 2.500000e+00
    endloop
  endfacet
  facet normal 8.660254e-01 5.000000e-01 0.000000e+00
    outer loop
      vertex 5.375000e+00 1.257214e+00 0.000000e+00
      vertex -2.500000e-01 1.100000e+01 0.000000e+00
      vertex -2.500000e-01 1.100000e+01 2.500000e+00
    endloop
  endfacet
  facet normal 8.660254e-01 5.000000e-01 0.000000e+00
    outer loop
      vertex 5.375000e+00 1.257214e+00 0.000000e+00
      vertex -2.500000e-01 1.100000e+01 2.500000e+00
      vertex 5.375000e+00 1.257214e+00 2.500000e+00
    endloop
  endfacet
  facet normal 0.000000e+00 1.000000e+00 0.000000e+00
    outer loop
      vertex 5.375000e+00 1.257214e+00 0.000000e+00
      vertex 5.375000e+00 1.257214e+00 2.500000e+00
      vertex 1.225000e+01 1.257214e+00 2.500000e+00
    endloop
  endfacet
  facet normal 0.000000e+00 1.000000e+00 0.000000e+00
    outer loop
      vertex 5.375000e+00 1.257214e+00 0.000000e+00
      vertex 1.225000e+01 1.257214e+00 2.500000e+00
      vertex 1.225000e+01 1.257214e+00 0.000000e+00
    endloop
  endfacet
endsolid Default
